<svg xmlns="http://www.w3.org/2000/svg" viewBox="0 0 200 200" width="200" height="200">
  <defs>
    <radialGradient id="potatoGrad" cx="30%" cy="30%" r="70%">
      <stop offset="0%" stop-color="#d4a373"/>
      <stop offset="100%" stop-color="#b07d4b"/>
    </radialGradient>
  </defs>
  
  <path d="M100,20 C150,20 180,60 170,120 C160,180 130,190 90,185 C40,180 20,140 25,80 C30,30 60,20 100,20 Z" 
        fill="url(#potatoGrad)" 
        stroke="#8c5e34" 
        stroke-width="5"/>
        
  <ellipse cx="60" cy="70" rx="6" ry="4" fill="#8c5e34" opacity="0.4" transform="rotate(-20 60 70)"/>
  <ellipse cx="140" cy="100" rx="5" ry="7" fill="#8c5e34" opacity="0.4" transform="rotate(30 140 100)"/>
  <ellipse cx="80" cy="150" rx="7" ry="5" fill="#8c5e34" opacity="0.4" transform="rotate(-10 80 150)"/>
  <ellipse cx="110" cy="50" rx="4" ry="5" fill="#8c5e34" opacity="0.4" transform="rotate(45 110 50)"/>
  <ellipse cx="150" cy="150" rx="8" ry="6" fill="#8c5e34" opacity="0.4" transform="rotate(-40 150 150)"/>
  <ellipse cx="40" cy="120" rx="5" ry="6" fill="#8c5e34" opacity="0.4" transform="rotate(15 40 120)"/>
</svg>
